<svg width="32" height="32" viewBox="0 0 32 32" fill="none" xmlns="http://www.w3.org/2000/svg">
<path d="M16 0C12.8355 0 9.74207 0.938383 7.11088 2.69649C4.4797 4.45459 2.42894 6.95344 1.21793 9.87706C0.00693254 12.8007 -0.309921 16.0177 0.307443 19.1214C0.924806 22.2251 2.44866 25.0761 4.6863 27.3137C6.92394 29.5513 9.77486 31.0752 12.8786 31.6926C15.9823 32.3099 19.1993 31.9931 22.1229 30.7821C25.0466 29.5711 27.5454 27.5203 29.3035 24.8891C31.0616 22.2579 32 19.1645 32 16C32 13.8988 31.5861 11.8183 30.7821 9.87706C29.978 7.93585 28.7994 6.17203 27.3137 4.68629C25.828 3.20055 24.0641 2.022 22.1229 1.21793C20.1817 0.413852 18.1012 0 16 0V0ZM12.8 20.8C12.8 21.2243 12.6314 21.6313 12.3314 21.9314C12.0313 22.2314 11.6244 22.4 11.2 22.4C10.7757 22.4 10.3687 22.2314 10.0686 21.9314C9.76858 21.6313 9.6 21.2243 9.6 20.8V11.2C9.6 10.7757 9.76858 10.3687 10.0686 10.0686C10.3687 9.76857 10.7757 9.6 11.2 9.6C11.6244 9.6 12.0313 9.76857 12.3314 10.0686C12.6314 10.3687 12.8 10.7757 12.8 11.2V20.8ZM22.4 20.8C22.4 21.2243 22.2314 21.6313 21.9314 21.9314C21.6313 22.2314 21.2243 22.4 20.8 22.4C20.3757 22.4 19.9687 22.2314 19.6686 21.9314C19.3686 21.6313 19.2 21.2243 19.2 20.8V11.2C19.2 10.7757 19.3686 10.3687 19.6686 10.0686C19.9687 9.76857 20.3757 9.6 20.8 9.6C21.2243 9.6 21.6313 9.76857 21.9314 10.0686C22.2314 10.3687 22.4 10.7757 22.4 11.2V20.8Z" fill="black"/>
</svg>
