<svg width="24" height="24" viewBox="0 0 30 30" fill="none" xmlns="http://www.w3.org/2000/svg">
<path d="M15 0.375C6.93586 0.375 0.375 6.93656 0.375 15C0.375 23.0761 6.92391 29.625 15 29.625C23.0641 29.625 29.625 23.0641 29.625 15C29.625 6.9232 23.0768 0.375 15 0.375ZM15 22.3828C13.2471 22.3828 11.566 21.6865 10.3265 20.447C9.08697 19.2075 8.39063 17.5264 8.39062 15.7734C8.39063 14.0205 9.08697 12.3394 10.3265 11.0999C11.566 9.86041 13.2471 9.16406 15 9.16406H15.296L14.3039 8.17266C14.1193 7.98804 14.0156 7.73765 14.0156 7.47656C14.0156 7.21548 14.1193 6.96508 14.3039 6.78047C14.4885 6.59585 14.7389 6.49214 15 6.49214C15.2611 6.49214 15.5115 6.59585 15.6961 6.78047L18.5086 9.59297C18.6 9.68438 18.6725 9.7929 18.722 9.91234C18.7715 10.0318 18.7969 10.1598 18.7969 10.2891C18.7969 10.4183 18.7715 10.5464 18.722 10.6658C18.6725 10.7852 18.6 10.8937 18.5086 10.9852L15.6961 13.7977C15.5115 13.9823 15.2611 14.086 15 14.086C14.7389 14.086 14.4885 13.9823 14.3039 13.7977C14.1193 13.613 14.0156 13.3626 14.0156 13.1016C14.0156 12.8405 14.1193 12.5901 14.3039 12.4055L15.5695 11.1398C15.4022 11.1328 15.2109 11.1328 15 11.1328C14.0822 11.1328 13.185 11.405 12.4218 11.9149C11.6587 12.4248 11.0639 13.1496 10.7126 13.9975C10.3614 14.8455 10.2695 15.7786 10.4485 16.6788C10.6276 17.579 11.0696 18.4059 11.7186 19.0549C12.3676 19.7039 13.1945 20.1458 14.0947 20.3249C14.9949 20.504 15.9279 20.4121 16.7759 20.0608C17.6239 19.7096 18.3486 19.1148 18.8585 18.3516C19.3685 17.5885 19.6406 16.6913 19.6406 15.7734C19.6406 15.5124 19.7443 15.262 19.9289 15.0774C20.1135 14.8928 20.3639 14.7891 20.625 14.7891C20.8861 14.7891 21.1365 14.8928 21.3211 15.0774C21.5057 15.262 21.6094 15.5124 21.6094 15.7734C21.6073 17.5257 20.9103 19.2057 19.6713 20.4447C18.4322 21.6838 16.7523 22.3808 15 22.3828V22.3828Z" fill="white"/>
</svg>
